<svg width="370" height="229" viewBox="0 0 370 229" fill="none" xmlns="http://www.w3.org/2000/svg">
<path d="M63.7204 96.8356C66.8666 96.3776 69.5249 99.0758 69.6344 102.76C70.0427 115.623 70.5305 128.318 71.2175 140.793C67.7626 128.766 64.0191 116.569 60.0962 104.183C58.9114 100.639 60.5244 97.3036 63.7204 96.8356Z" fill="$primary-color"/>
<path d="M31.9401 124.455C33.5331 123.041 36.4105 123.529 38.3221 125.56C44.963 132.599 51.365 139.867 57.3288 147.205C49.6788 140.977 41.7024 135.161 33.4336 129.781C31.054 128.208 30.3371 125.839 31.9401 124.455Z" fill="#FDA014"/>
<path d="M-0.000206724 150.341C0.427917 148.001 4.29099 146.488 8.48262 147.215C22.6093 149.74 36.4573 153.631 49.8314 158.834C35.7356 156.178 21.4404 154.719 7.09868 154.473C2.85727 154.413 -0.388505 152.671 -0.000206724 150.341Z" fill="#9EF431"/>
<path d="M131.255 131.583C132.171 133.116 130.339 135.227 127.273 136.392C117.056 140.335 107.131 144.996 97.5728 150.341C105.996 143.351 114.988 137.076 124.455 131.583C127.213 130.01 130.339 130.05 131.255 131.583Z" fill="#FBD678"/>
<path d="M115.763 95.7802C119.267 97.4429 119.337 101.206 116.111 104.402C104.87 115.839 94.9109 128.469 86.4111 142.067C91.836 127.523 98.2531 113.368 105.617 99.703C107.668 95.8399 112.268 94.1274 115.763 95.7802Z" fill="#27DCED"/>
<path d="M40.9507 96.7459C41.2693 98.1597 40.1143 99.6333 38.3819 100.081C36.6495 100.529 34.9868 99.7826 34.6483 98.3887C34.3098 96.9948 35.4647 95.4516 37.217 94.9936C38.9693 94.5356 40.642 95.3321 40.9507 96.7459Z" fill="#27DCED"/>
<path d="M83.0266 128.706C83.0492 129.421 82.7946 130.118 82.316 130.65C81.8374 131.183 81.1718 131.51 80.4579 131.563C79.9687 131.556 79.4919 131.408 79.0846 131.137C78.6772 130.866 78.3565 130.483 78.1607 130.035C77.9649 129.586 77.9023 129.091 77.9804 128.608C78.0585 128.125 78.274 127.675 78.6011 127.311C78.9282 126.947 79.3531 126.685 79.8251 126.556C80.2971 126.427 80.7962 126.437 81.2629 126.584C81.7295 126.731 82.144 127.009 82.4567 127.385C82.7695 127.762 82.9673 128.22 83.0266 128.706Z" fill="#FDA014"/>
<path d="M82.8265 157.51C82.8541 158.225 82.6026 158.923 82.1252 159.456C81.6477 159.989 80.9816 160.316 80.2677 160.367C79.778 160.362 79.3003 160.215 78.8916 159.945C78.483 159.675 78.1608 159.294 77.9635 158.845C77.7662 158.397 77.7023 157.902 77.7792 157.418C77.8562 156.934 78.0709 156.483 78.3976 156.118C78.7243 155.753 79.1492 155.49 79.6214 155.361C80.0936 155.231 80.5932 155.24 81.0604 155.387C81.5276 155.534 81.9426 155.812 82.2558 156.188C82.569 156.565 82.7671 157.024 82.8265 157.51Z" fill="#FDA014"/>
<path d="M40.0143 164.967C40.1466 165.249 40.2112 165.557 40.203 165.868C40.1947 166.178 40.1137 166.483 39.9666 166.757C39.8195 167.031 39.6104 167.266 39.3559 167.445C39.1013 167.623 38.8086 167.74 38.501 167.785C37.8271 167.922 37.1267 167.832 36.5102 167.527C35.8936 167.222 35.396 166.721 35.0959 166.102C34.9635 165.82 34.8992 165.511 34.908 165.2C34.9169 164.888 34.9987 164.583 35.1468 164.309C35.295 164.035 35.5054 163.8 35.7611 163.622C36.0168 163.444 36.3108 163.328 36.6192 163.285C37.2924 163.129 37.9987 163.212 38.6178 163.519C39.2368 163.825 39.7304 164.337 40.0143 164.967Z" fill="#FDC63A"/>
<path d="M122.712 147.802C122.565 148.478 122.207 149.089 121.689 149.547C121.172 150.005 120.522 150.287 119.834 150.351C119.538 150.408 119.232 150.394 118.942 150.311C118.652 150.227 118.385 150.077 118.164 149.871C117.943 149.666 117.774 149.411 117.669 149.128C117.565 148.844 117.529 148.54 117.564 148.24C117.684 147.556 118.031 146.932 118.55 146.469C119.069 146.007 119.728 145.733 120.422 145.692C120.72 145.631 121.028 145.642 121.321 145.724C121.613 145.806 121.883 145.956 122.106 146.162C122.33 146.368 122.501 146.624 122.606 146.909C122.712 147.194 122.748 147.501 122.712 147.802Z" fill="#9EF431"/>
<path d="M48.5864 110.635C48.7792 111.083 48.8293 111.579 48.73 112.056C48.6306 112.533 48.3865 112.968 48.031 113.301C47.6755 113.634 47.2259 113.85 46.7435 113.919C46.261 113.987 45.7691 113.905 45.3349 113.684C44.9006 113.463 44.5451 113.113 44.3168 112.683C44.0884 112.252 43.9984 111.762 44.0589 111.278C44.1194 110.795 44.3275 110.342 44.6548 109.981C44.9822 109.62 45.4129 109.369 45.8883 109.261C46.4283 109.088 47.0148 109.136 47.5201 109.393C48.0255 109.65 48.4087 110.097 48.5864 110.635Z" fill="#FDA014"/>
<path d="M80.6457 90.6028C80.7851 91.5984 79.8193 92.5941 78.4851 92.6837C77.9072 92.7814 77.3135 92.6614 76.8189 92.347C76.3242 92.0325 75.9637 91.5459 75.8069 90.9811C75.6575 89.9257 76.6133 88.9899 77.9574 88.8704C78.5404 88.7759 79.1377 88.9007 79.6341 89.2206C80.1305 89.5405 80.4909 90.0329 80.6457 90.6028Z" fill="#9EF431"/>
<path d="M48.3184 146.826C48.3781 147.069 48.3873 147.321 48.3456 147.567C48.3038 147.813 48.2119 148.048 48.0756 148.257C47.9393 148.466 47.7615 148.645 47.5532 148.783C47.3449 148.92 47.1106 149.013 46.8647 149.057C46.3555 149.183 45.8177 149.118 45.3533 148.874C44.889 148.63 44.5304 148.223 44.3458 147.732C44.2798 147.489 44.2658 147.235 44.3048 146.986C44.3437 146.737 44.4348 146.499 44.572 146.287C44.7092 146.076 44.8894 145.896 45.1009 145.759C45.3124 145.622 45.5504 145.531 45.7994 145.492C46.3101 145.357 46.8529 145.419 47.3198 145.667C47.7866 145.914 48.1431 146.328 48.3184 146.826Z" fill="$primary-color"/>
<path d="M18.7963 168.362C18.9034 168.549 18.9639 168.76 18.9725 168.975C18.9811 169.191 18.9377 169.406 18.8459 169.601C18.7541 169.796 18.6166 169.967 18.4451 170.098C18.2736 170.229 18.073 170.316 17.8604 170.353C17.3568 170.481 16.8264 170.455 16.338 170.277C15.8497 170.1 15.4261 169.779 15.1224 169.358C15.0122 169.167 14.951 168.951 14.9444 168.731C14.9379 168.51 14.9861 168.292 15.0847 168.094C15.1833 167.897 15.3294 167.727 15.5097 167.6C15.69 167.473 15.899 167.393 16.118 167.366C16.6127 167.237 17.1351 167.264 17.6143 167.442C18.0934 167.62 18.5062 167.941 18.7963 168.362Z" fill="#27DCED"/>
<path d="M23.0888 138.393C23.1582 138.642 23.1757 138.901 23.1402 139.156C23.1047 139.411 23.0169 139.656 22.8823 139.876C22.7477 140.096 22.5693 140.285 22.3581 140.433C22.1469 140.58 21.9076 140.682 21.6551 140.733C21.1541 140.928 20.5995 140.934 20.0942 140.751C19.5888 140.568 19.167 140.208 18.9071 139.738C18.8393 139.489 18.8233 139.229 18.8601 138.974C18.8969 138.719 18.9858 138.474 19.1211 138.254C19.2565 138.035 19.4355 137.846 19.647 137.698C19.8585 137.551 20.0981 137.449 20.3508 137.398C20.8496 137.197 21.4051 137.187 21.9105 137.371C22.4159 137.555 22.8355 137.919 23.0888 138.393Z" fill="#9EF431"/>
<path d="M94.4361 158.406C94.4473 158.901 94.279 159.383 93.9625 159.764C93.6459 160.144 93.2023 160.398 92.7136 160.477C92.4865 160.515 92.2538 160.505 92.031 160.446C91.8083 160.388 91.6005 160.282 91.4215 160.137C91.2426 159.992 91.0966 159.811 90.9932 159.605C90.8898 159.399 90.8314 159.174 90.8219 158.944C90.796 158.436 90.9652 157.938 91.2946 157.551C91.6241 157.164 92.089 156.918 92.5942 156.863C92.8188 156.829 93.0482 156.843 93.2669 156.904C93.4857 156.966 93.6889 157.073 93.8631 157.219C94.0373 157.365 94.1785 157.546 94.2772 157.751C94.376 157.955 94.4302 158.179 94.4361 158.406Z" fill="#9EF431"/>
<path d="M88.2127 104.143C88.3521 105.448 87.1374 106.593 85.5245 106.722C84.8117 106.836 84.0823 106.674 83.4848 106.269C82.8874 105.864 82.4667 105.246 82.3086 104.542C82.1493 103.227 83.3042 102.053 84.9869 101.933C86.6695 101.814 88.0833 102.839 88.2127 104.143Z" fill="$primary-color"/>
<path d="M114.04 116.629C115.5 114.638 116.983 112.7 118.49 110.814C119.964 112.806 121.387 114.797 122.761 116.689C119.844 116.629 116.947 116.609 114.04 116.629Z" fill="#FDA014"/>
<path d="M66.1802 144.935C68.729 145.326 71.2546 145.735 73.757 146.159C72.0578 147.978 70.3984 149.803 68.7788 151.635C67.9425 149.405 67.0663 147.175 66.1802 144.935Z" fill="#FDA014"/>
<path d="M15.3425 125.012C13.411 123.469 11.4695 121.946 9.51807 120.462C12.4054 119.519 15.2994 118.63 18.2 117.794C17.211 120.243 16.2585 122.649 15.3425 125.012Z" fill="#27DCED"/>
<path d="M17.7925 97.7815L20.3015 99.952C21.6457 99.6433 22.9997 99.3546 24.3438 99.0858C23.5871 100.081 22.8404 101.167 22.0837 102.212L23.5871 105.07C22.3028 104.96 21.0084 104.87 19.7141 104.791C18.7185 105.677 17.6731 106.553 16.6575 107.449L16.4484 104.183C15.3034 103.815 14.1684 103.447 13.0234 103.098C14.2779 102.451 15.5324 101.824 16.7969 101.197C17.1255 100.062 17.454 98.9165 17.7925 97.7815Z" fill="#9EF431"/>
<path d="M63.8905 156.036L66.3995 158.207C67.7436 157.908 69.0977 157.619 70.4418 157.34C69.6851 158.386 68.9284 159.421 68.1916 160.467L69.6951 163.284C68.4007 163.175 67.1164 163.085 65.822 163.016C64.8264 163.892 63.8308 164.778 62.7654 165.664C62.6957 164.579 62.6161 163.493 62.5563 162.408C61.4114 162.03 60.2763 161.671 59.1313 161.313C60.3858 160.676 61.6404 160.039 62.9048 159.411C63.2234 158.306 63.552 157.181 63.8905 156.036Z" fill="$primary-color"/>
<path d="M82.3892 221.838C81.2144 222.067 79.7209 219.608 79.1235 216.362C77.1323 205.002 75.5094 193.333 74.2549 181.395C77.64 192.944 80.6867 204.295 83.2156 215.585C83.9823 218.811 83.5641 221.619 82.3892 221.838Z" fill="$primary-color"/>
<path d="M98.0207 199.785C96.9554 200.9 95.6511 200.083 94.9542 197.963C92.3921 190.269 89.1502 182.819 85.2666 175.7C90.2637 181.521 94.6539 187.836 98.3692 194.548C98.8235 195.361 99.0324 196.288 98.9705 197.218C98.9087 198.147 98.5787 199.039 98.0207 199.785Z" fill="#FDA014"/>
<path d="M123.987 180.101C122.324 182.351 119.795 183.008 118.013 181.485C110.303 175.166 102.066 169.52 93.3906 164.609C104.562 168.014 114.468 171.469 122.812 174.506C125.231 175.392 125.639 177.851 123.987 180.101Z" fill="#9EF431"/>
<path d="M31.3123 192.955C29.5202 191.72 29.2713 189.669 30.8743 188.295C36.41 183.526 42.7323 178.279 49.7913 172.823C44.8282 178.948 40.2939 185.408 36.2208 192.158C35.2252 193.9 33.0945 194.149 31.3123 192.955Z" fill="#FDC63A"/>
<path d="M61.9483 223.023C60.6591 222.18 59.5566 221.081 58.7089 219.795C57.8612 218.509 57.2863 217.063 57.0199 215.545C55.7555 205.101 57.6472 193.084 61.8388 180.21C60.3951 194.079 60.8432 207.152 63.9097 219.09C64.7162 222.535 64.0889 224.227 61.9483 223.023Z" fill="#9EF431"/>
<path d="M90.8413 223.889C90.8413 222.604 91.2893 221.429 91.9365 221.24C92.5837 221.051 93.0815 221.947 93.0516 223.232C93.0218 224.516 92.514 225.721 91.9465 225.89C91.379 226.059 90.8811 225.173 90.8413 223.889Z" fill="#27DCED"/>
<path d="M67.1157 192.676C67.0109 192.419 66.9608 192.143 66.9686 191.867C66.9763 191.59 67.0418 191.317 67.1608 191.067C67.2798 190.817 67.4498 190.594 67.6597 190.413C67.8697 190.233 68.115 190.098 68.3801 190.017C68.9761 189.98 69.565 190.162 70.0362 190.529C70.5074 190.895 70.8284 191.422 70.9389 192.008C71.2675 193.293 70.7 194.488 69.6745 194.657C69.0841 194.676 68.5055 194.488 68.0385 194.127C67.5714 193.765 67.2451 193.252 67.1157 192.676Z" fill="#FDA014"/>
<path d="M104.013 159.242C104.064 158.57 104.34 157.934 104.797 157.439C105.255 156.944 105.866 156.618 106.532 156.514C106.828 156.456 107.132 156.469 107.422 156.55C107.712 156.632 107.978 156.78 108.2 156.984C108.422 157.187 108.593 157.44 108.699 157.721C108.806 158.003 108.844 158.306 108.812 158.605C108.742 159.271 108.455 159.896 107.997 160.385C107.539 160.874 106.934 161.2 106.273 161.313C105.983 161.353 105.688 161.328 105.409 161.241C105.129 161.154 104.873 161.006 104.657 160.809C104.441 160.611 104.271 160.368 104.16 160.097C104.049 159.826 103.999 159.535 104.013 159.242Z" fill="#FDC63A"/>
<path d="M27.1704 177.651C27.004 177.414 26.9011 177.139 26.8716 176.851C26.8421 176.563 26.8869 176.272 27.0018 176.007C27.1166 175.741 27.2977 175.509 27.5277 175.333C27.7576 175.158 28.0288 175.044 28.3153 175.003C28.9902 174.879 29.6869 174.968 30.3093 175.257C30.9316 175.546 31.449 176.02 31.7901 176.616C31.942 176.851 32.0336 177.12 32.0567 177.399C32.0797 177.678 32.0336 177.959 31.9223 178.216C31.811 178.473 31.6381 178.698 31.4188 178.873C31.1995 179.047 30.9406 179.164 30.665 179.214C29.9938 179.32 29.3064 179.228 28.6862 178.95C28.066 178.673 27.5394 178.222 27.1704 177.651Z" fill="#9EF431"/>
<path d="M88.3813 210.677C88.3116 209.681 88.7497 208.825 89.3769 208.685C90.0042 208.546 90.512 209.213 90.5418 210.179C90.5717 211.145 90.1436 212.031 89.5462 212.17C88.9488 212.31 88.461 211.632 88.3813 210.677Z" fill="#FDA014"/>
<path d="M76.9927 226.647C76.6641 225.741 76.7936 224.964 77.2814 224.895C77.7693 224.825 78.3866 225.512 78.6753 226.428C78.9641 227.344 78.8247 228.13 78.3866 228.18C77.9485 228.23 77.3113 227.553 76.9927 226.647Z" fill="#9FB603"/>
<path d="M92.1758 176.626C92.1445 176.155 92.2815 175.688 92.5623 175.309C92.8431 174.93 93.2495 174.663 93.7091 174.555C93.9204 174.521 94.1369 174.535 94.3418 174.597C94.5467 174.66 94.7347 174.768 94.8913 174.914C95.048 175.06 95.1691 175.24 95.2455 175.44C95.3218 175.64 95.3514 175.855 95.3319 176.068C95.3433 176.535 95.1973 176.992 94.9173 177.366C94.6374 177.74 94.2399 178.009 93.7887 178.129C93.5796 178.158 93.3668 178.139 93.1657 178.076C92.9645 178.012 92.7801 177.904 92.6257 177.76C92.4714 177.616 92.3509 177.44 92.2731 177.244C92.1953 177.047 92.162 176.836 92.1758 176.626Z" fill="$primary-color"/>
<path d="M123.658 158.495C123.781 158.002 124.049 157.557 124.427 157.216C124.805 156.876 125.275 156.656 125.779 156.584C125.983 156.535 126.196 156.54 126.397 156.6C126.599 156.66 126.781 156.772 126.925 156.924C127.069 157.076 127.171 157.264 127.22 157.468C127.268 157.673 127.262 157.886 127.202 158.087C127.063 158.573 126.789 159.009 126.412 159.346C126.035 159.682 125.57 159.905 125.072 159.989C124.869 160.035 124.658 160.027 124.46 159.967C124.261 159.907 124.082 159.796 123.939 159.645C123.796 159.495 123.695 159.309 123.646 159.108C123.597 158.906 123.601 158.695 123.658 158.495Z" fill="#16C1D1"/>
<path d="M106.443 187.648C106.491 187.186 106.669 186.747 106.956 186.383C107.244 186.018 107.628 185.742 108.066 185.587C108.842 185.417 109.34 186.065 109.181 187.03C109.113 187.49 108.926 187.923 108.637 188.286C108.349 188.65 107.97 188.931 107.538 189.101C106.801 189.271 106.313 188.613 106.443 187.648Z" fill="#9EF431"/>
<path d="M50.4383 164.937C50.3612 164.716 50.3333 164.48 50.3566 164.247C50.3799 164.013 50.4539 163.788 50.5733 163.586C50.6928 163.384 50.8548 163.21 51.0482 163.078C51.2415 162.945 51.4615 162.856 51.6928 162.817C52.1873 162.719 52.7005 162.806 53.1354 163.061C53.5702 163.316 53.8965 163.721 54.0525 164.2C54.1176 164.421 54.1355 164.653 54.1047 164.881C54.074 165.109 53.9954 165.328 53.8741 165.524C53.7529 165.719 53.5917 165.887 53.401 166.016C53.2104 166.145 52.9947 166.232 52.7681 166.271C52.2855 166.352 51.7898 166.263 51.3652 166.02C50.9406 165.777 50.6131 165.394 50.4383 164.937Z" fill="#9EF431"/>
<path d="M70.1124 214.819C69.6544 213.674 69.9332 212.648 70.7098 212.539C71.4864 212.429 72.4323 213.275 72.8205 214.45C73.2088 215.625 72.95 216.631 72.2232 216.73C71.4964 216.83 70.5605 215.964 70.1124 214.819Z" fill="#A81D05"/>
<path d="M51.544 204.663C51.7332 206.505 51.9821 208.307 52.3107 210.09C50.4488 208.457 48.5372 206.844 46.5957 205.241C48.2385 205.101 49.9012 204.862 51.544 204.663Z" fill="#FDA014"/>
<path d="M78.088 177.532C76.037 177.087 73.9528 176.646 71.8354 176.208C73.1298 174.466 74.4938 172.713 75.9076 170.951C76.651 173.141 77.3778 175.335 78.088 177.532Z" fill="#FDA014"/>
<path d="M105.628 201.825C105.897 203.657 106.086 205.489 106.205 207.301C104.931 207.59 103.646 207.869 102.352 208.128C103.388 206.037 104.483 203.926 105.628 201.825Z" fill="#27DCED"/>
<path d="M97.6421 226.617C97.6421 225.8 97.5525 224.984 97.4828 224.178L96.2383 224.227C96.6266 223.421 97.0248 222.604 97.433 221.798C97.433 220.802 97.5127 219.896 97.5426 218.94C97.9209 219.259 98.2992 219.578 98.6477 219.886C99.1356 219.269 99.6434 218.652 100.151 218.034C99.9022 219.03 99.6533 220.026 99.4144 221.021C99.6234 221.589 99.8126 222.156 99.9918 222.724L98.6278 223.67C98.2893 224.665 97.9607 225.648 97.6421 226.617Z" fill="#9EF431"/>
<path d="M304.754 73.6769C307.741 73.7864 309.732 76.6638 309.165 80.0888C307.382 91.917 305.69 103.606 304.186 115.135C303.042 103.556 301.668 91.7676 300.204 79.7901C299.766 76.3054 301.797 73.5176 304.754 73.6769Z" fill="$primary-color"/>
<path d="M271.102 93.5202C272.795 92.5246 275.344 93.4306 276.748 95.611C281.636 103.168 286.276 110.884 290.497 118.6C284.546 111.635 278.232 104.988 271.58 98.6876C269.659 96.8257 269.4 94.5855 271.102 93.5202Z" fill="#FDA014"/>
<path d="M237.569 111.86C238.355 109.799 242.139 109.052 245.852 110.426C258.339 115.113 270.343 120.998 281.695 127.999C269.253 123.2 256.426 119.463 243.353 116.828C239.46 116.051 236.792 113.921 237.569 111.86Z" fill="#9EF431"/>
<path d="M360.709 116.758C361.297 118.321 359.275 119.934 356.299 120.492C346.277 122.39 336.402 124.995 326.748 128.288C335.612 123.307 344.877 119.077 354.447 115.643C357.284 114.638 360.132 115.205 360.709 116.758Z" fill="#FDC63A"/>
<path d="M352.565 81.4132C355.492 83.5239 354.924 86.9788 351.44 89.3783C339.237 97.9482 328.007 107.824 317.946 118.829C325.353 106.442 333.6 94.5758 342.628 83.3148C345.157 80.1089 349.647 79.3223 352.565 81.4132Z" fill="#27DCED"/>
<path d="M283.994 69.6944C283.934 70.4188 283.599 71.0929 283.059 71.5793C282.519 72.0658 281.814 72.3282 281.087 72.313C279.424 72.4324 278.03 71.4667 277.951 70.1325C277.871 68.7984 279.185 67.5937 280.868 67.4642C282.551 67.3348 283.944 68.3802 283.994 69.6944Z" fill="#16C1D1"/>
<path d="M317.101 106.015C317.002 106.674 316.653 107.269 316.126 107.677C315.599 108.085 314.936 108.274 314.273 108.206C313.827 108.117 313.416 107.902 313.089 107.586C312.762 107.271 312.533 106.867 312.428 106.425C312.324 105.983 312.349 105.519 312.501 105.091C312.653 104.662 312.924 104.286 313.284 104.008C313.643 103.73 314.075 103.561 314.528 103.521C314.981 103.481 315.435 103.572 315.838 103.784C316.24 103.996 316.573 104.318 316.797 104.714C317.021 105.11 317.126 105.561 317.101 106.015Z" fill="#FDA014"/>
<path d="M312.082 132.33C311.983 132.988 311.633 133.582 311.106 133.989C310.579 134.395 309.916 134.582 309.254 134.51C308.808 134.422 308.396 134.206 308.069 133.89C307.742 133.574 307.513 133.17 307.409 132.727C307.305 132.284 307.331 131.821 307.484 131.392C307.636 130.963 307.909 130.588 308.269 130.31C308.63 130.032 309.062 129.864 309.516 129.825C309.969 129.787 310.424 129.879 310.826 130.092C311.228 130.305 311.56 130.63 311.783 131.027C312.005 131.423 312.109 131.876 312.082 132.33Z" fill="#FDA014"/>
<path d="M271.669 131.952C271.735 132.231 271.737 132.521 271.675 132.801C271.613 133.081 271.488 133.343 271.309 133.567C271.131 133.791 270.904 133.972 270.645 134.096C270.387 134.22 270.104 134.283 269.817 134.282C269.177 134.291 268.552 134.088 268.041 133.704C267.529 133.321 267.159 132.778 266.989 132.161C266.917 131.88 266.91 131.587 266.971 131.303C267.031 131.019 267.156 130.754 267.337 130.527C267.517 130.3 267.748 130.118 268.011 129.996C268.274 129.873 268.561 129.813 268.851 129.821C269.495 129.796 270.127 129.995 270.64 130.383C271.154 130.772 271.517 131.326 271.669 131.952Z" fill="#FDC63A"/>
<path d="M350.185 130.16C349.932 130.747 349.501 131.241 348.953 131.571C348.404 131.901 347.767 132.052 347.129 132.002C346.848 132.004 346.57 131.941 346.318 131.816C346.066 131.692 345.847 131.51 345.678 131.285C345.51 131.06 345.396 130.799 345.347 130.522C345.298 130.245 345.315 129.961 345.396 129.692C345.618 129.095 346.032 128.59 346.573 128.255C347.113 127.919 347.75 127.773 348.383 127.84C348.671 127.825 348.958 127.881 349.22 128.001C349.482 128.121 349.712 128.303 349.889 128.53C350.065 128.758 350.185 129.025 350.236 129.309C350.288 129.592 350.271 129.884 350.185 130.16Z" fill="#9EF431"/>
<path d="M288.646 83.7133C288.746 84.1542 288.707 84.6151 288.536 85.0334C288.364 85.4517 288.068 85.8071 287.688 86.0511C287.307 86.2952 286.861 86.4162 286.409 86.3976C285.957 86.379 285.522 86.2217 285.163 85.9472C284.804 85.6727 284.538 85.2942 284.402 84.8632C284.265 84.4322 284.265 83.9697 284.401 83.5385C284.537 83.1073 284.802 82.7283 285.16 82.4532C285.519 82.1781 285.954 82.0201 286.406 82.0008C286.665 81.9658 286.929 81.9823 287.182 82.0495C287.435 82.1167 287.673 82.2331 287.881 82.3922C288.089 82.5513 288.264 82.7498 288.395 82.9765C288.526 83.2032 288.611 83.4536 288.646 83.7133Z" fill="#FDA014"/>
<path d="M321.361 70.7599C321.318 71.0173 321.222 71.2631 321.08 71.4821C320.938 71.7011 320.752 71.8887 320.535 72.0333C320.318 72.1779 320.073 72.2764 319.816 72.3228C319.559 72.3693 319.296 72.3626 319.041 72.3032C318.499 72.2958 317.979 72.0885 317.58 71.721C317.181 71.3535 316.932 70.8517 316.881 70.3119C316.917 70.0489 317.008 69.7963 317.146 69.5701C317.285 69.3438 317.469 69.1487 317.687 68.9972C317.905 68.8456 318.152 68.7409 318.413 68.6896C318.673 68.6383 318.942 68.6414 319.201 68.699C319.753 68.7124 320.28 68.931 320.679 69.312C321.079 69.6931 321.322 70.2093 321.361 70.7599Z" fill="#9EF431"/>
<path d="M282.312 116.758C282.327 116.99 282.294 117.222 282.215 117.441C282.136 117.659 282.013 117.859 281.853 118.027C281.693 118.195 281.5 118.329 281.286 118.419C281.072 118.509 280.842 118.554 280.61 118.55C280.123 118.58 279.642 118.43 279.259 118.129C278.875 117.828 278.616 117.397 278.529 116.918C278.508 116.684 278.536 116.448 278.613 116.226C278.689 116.004 278.812 115.8 278.973 115.629C279.134 115.458 279.329 115.323 279.546 115.232C279.763 115.142 279.996 115.099 280.231 115.106C280.721 115.076 281.204 115.229 281.588 115.534C281.972 115.839 282.23 116.275 282.312 116.758Z" fill="$primary-color"/>
<path d="M251.697 131.494C251.77 131.685 251.795 131.892 251.77 132.096C251.745 132.3 251.67 132.494 251.552 132.663C251.434 132.831 251.277 132.967 251.093 133.06C250.91 133.153 250.707 133.2 250.502 133.196C250.017 133.222 249.535 133.101 249.119 132.849C248.703 132.596 248.374 132.225 248.172 131.782C248.096 131.59 248.069 131.381 248.093 131.176C248.118 130.97 248.193 130.774 248.313 130.605C248.433 130.436 248.593 130.299 248.778 130.207C248.964 130.116 249.17 130.072 249.377 130.08C249.863 130.042 250.349 130.158 250.765 130.412C251.182 130.665 251.508 131.044 251.697 131.494Z" fill="#16C1D1"/>
<path d="M260.657 104.831C260.678 105.07 260.649 105.31 260.573 105.538C260.496 105.765 260.374 105.975 260.214 106.153C260.053 106.331 259.858 106.475 259.639 106.574C259.421 106.674 259.185 106.728 258.945 106.732C258.451 106.823 257.941 106.729 257.511 106.468C257.082 106.208 256.763 105.799 256.615 105.319C256.592 105.078 256.618 104.836 256.694 104.607C256.769 104.377 256.891 104.166 257.052 103.987C257.213 103.807 257.409 103.663 257.629 103.563C257.848 103.463 258.086 103.41 258.328 103.407C258.824 103.303 259.342 103.392 259.775 103.657C260.208 103.921 260.524 104.341 260.657 104.831Z" fill="#9EF431"/>
<path d="M322.587 135.098C322.499 135.548 322.26 135.954 321.908 136.248C321.556 136.542 321.113 136.706 320.655 136.711C320.44 136.708 320.228 136.659 320.034 136.567C319.84 136.475 319.668 136.342 319.529 136.178C319.39 136.014 319.288 135.822 319.23 135.615C319.172 135.408 319.159 135.191 319.191 134.979C319.255 134.52 319.488 134.102 319.843 133.806C320.198 133.51 320.651 133.356 321.113 133.376C321.328 133.376 321.541 133.423 321.736 133.513C321.932 133.603 322.106 133.735 322.246 133.898C322.386 134.062 322.488 134.254 322.547 134.461C322.606 134.668 322.62 134.885 322.587 135.098Z" fill="#9EF431"/>
<path d="M325.971 84.4301C325.908 84.7458 325.783 85.0459 325.604 85.3132C325.424 85.5804 325.194 85.8095 324.926 85.9872C324.657 86.1649 324.356 86.2877 324.04 86.3485C323.724 86.4094 323.399 86.4071 323.084 86.3418C322.417 86.3278 321.78 86.0626 321.3 85.5993C320.82 85.136 320.533 84.5087 320.495 83.8427C320.551 83.5214 320.671 83.2147 320.848 82.9412C321.026 82.6677 321.257 82.4331 321.528 82.2516C321.799 82.0701 322.104 81.9454 322.424 81.8852C322.745 81.825 323.074 81.8304 323.392 81.9012C324.062 81.9205 324.699 82.1917 325.177 82.6605C325.655 83.1293 325.939 83.7613 325.971 84.4301Z" fill="$primary-color"/>
<path d="M347.477 100.191C349.136 98.6379 350.815 97.1145 352.514 95.6211C353.53 97.6721 354.502 99.6999 355.432 101.704C352.803 101.167 350.145 100.659 347.477 100.191Z" fill="#FDA014"/>
<path d="M298.97 118.033C301.23 118.81 303.47 119.616 305.691 120.422C303.832 121.796 302.01 123.187 300.225 124.594C299.826 122.464 299.398 120.223 298.97 118.033Z" fill="#FDA014"/>
<path d="M255.879 91.2701C254.365 89.531 252.842 87.8185 251.309 86.1326C254.116 85.7543 256.914 85.4224 259.702 85.137C258.354 87.2079 257.08 89.2523 255.879 91.2701Z" fill="#16C1D1"/>
<path d="M262.639 66.7773C263.286 67.5739 263.933 68.3704 264.57 69.1868C265.855 69.127 267.139 69.0972 268.413 69.0673L265.835 71.5464C266.133 72.5421 266.432 73.4581 266.721 74.4139C265.566 74.1052 264.401 73.7966 263.226 73.5079L259.99 75.4294C260.103 74.4205 260.223 73.4249 260.349 72.4425C259.353 71.9049 258.357 71.3871 257.362 70.8694L261.155 69.6946C261.643 68.7487 262.141 67.763 262.639 66.7773Z" fill="#9EF431"/>
<path d="M295.008 127.8C295.645 128.596 296.292 129.393 296.929 130.209C298.214 130.15 299.498 130.12 300.782 130.09L298.184 132.569L299.08 135.436C297.918 135.118 296.753 134.819 295.585 134.54C294.5 135.168 293.415 135.805 292.339 136.452C292.459 135.456 292.568 134.461 292.698 133.465C291.702 132.927 290.707 132.4 289.711 131.892C290.965 131.514 292.22 131.145 293.484 130.787C294.012 129.771 294.5 128.785 295.008 127.8Z" fill="#A81D05"/>
<path d="M300.862 191.082C299.757 191.082 298.801 188.593 298.792 185.517C298.851 174.794 299.369 163.862 300.225 152.73C301.38 163.862 302.216 174.794 302.714 185.507C302.824 188.583 301.978 191.072 300.862 191.082Z" fill="#A81D05"/>
<path d="M318.862 173.539C317.697 174.376 316.642 173.41 316.363 171.359C315.314 163.884 313.601 156.517 311.246 149.345C314.835 155.511 317.788 162.026 320.057 168.79C320.343 169.612 320.382 170.5 320.17 171.343C319.957 172.187 319.503 172.951 318.862 173.539Z" fill="#FDA014"/>
<path d="M345.914 159.899C344.022 161.681 341.593 161.89 340.229 160.168C334.258 153.095 327.689 146.55 320.595 140.604C330.232 145.582 338.705 150.421 345.824 154.592C347.845 155.807 347.805 158.127 345.914 159.899Z" fill="#9FB603"/>
<path d="M259.005 156.086C257.581 154.652 257.691 152.741 259.393 151.745C265.258 148.32 271.919 144.586 279.306 140.793C273.737 145.574 268.504 150.734 263.645 156.235C262.43 157.599 260.429 157.51 259.005 156.086Z" fill="#FBD678"/>
<path d="M281.974 188.733C280.935 187.746 280.11 186.557 279.55 185.238C278.989 183.919 278.706 182.499 278.718 181.066C279.355 171.259 283.069 160.626 289.073 149.574C285.409 162.01 283.627 174.037 284.423 185.467C284.622 188.753 283.756 190.167 281.974 188.733Z" fill="#16C1D1"/>
<path d="M308.249 194.378C308.428 193.193 309.076 192.198 309.693 192.138C310.31 192.078 310.619 192.984 310.37 194.129C310.121 195.274 309.474 196.31 308.926 196.37C308.379 196.429 308.07 195.553 308.249 194.378Z" fill="#16C1D1"/>
<path d="M291.791 161.851C291.732 161.597 291.727 161.334 291.779 161.079C291.83 160.823 291.936 160.582 292.089 160.371C292.242 160.161 292.439 159.985 292.666 159.858C292.893 159.73 293.145 159.652 293.404 159.631C293.953 159.699 294.459 159.965 294.825 160.379C295.192 160.793 295.395 161.327 295.395 161.881C295.475 163.115 294.758 164.101 293.792 164.091C293.251 164.006 292.756 163.737 292.391 163.329C292.027 162.92 291.815 162.398 291.791 161.851Z" fill="#FDA014"/>
<path d="M331.159 137.468C331.317 136.861 331.677 136.326 332.181 135.951C332.684 135.576 333.3 135.384 333.927 135.407C334.206 135.404 334.483 135.466 334.734 135.589C334.985 135.711 335.204 135.891 335.374 136.114C335.543 136.336 335.658 136.595 335.709 136.87C335.76 137.145 335.747 137.428 335.669 137.697C335.49 138.293 335.123 138.815 334.622 139.185C334.121 139.555 333.514 139.752 332.891 139.748C332.614 139.747 332.341 139.682 332.093 139.559C331.845 139.435 331.629 139.257 331.461 139.036C331.294 138.815 331.179 138.559 331.127 138.287C331.074 138.015 331.085 137.735 331.159 137.468Z" fill="#FDC63A"/>
<path d="M257.799 141.38C257.686 141.137 257.638 140.869 257.658 140.601C257.679 140.334 257.768 140.076 257.917 139.853C258.066 139.63 258.27 139.449 258.509 139.328C258.748 139.206 259.015 139.149 259.283 139.16C259.921 139.155 260.544 139.351 261.066 139.719C261.587 140.087 261.98 140.608 262.19 141.211C262.297 141.453 262.341 141.718 262.318 141.981C262.296 142.245 262.208 142.499 262.063 142.719C261.917 142.94 261.719 143.121 261.485 143.245C261.252 143.37 260.991 143.434 260.726 143.431C260.091 143.413 259.475 143.209 258.955 142.845C258.435 142.48 258.033 141.971 257.799 141.38Z" fill="#9EF431"/>
<path d="M308.219 181.883C308.319 180.987 308.866 180.25 309.444 180.22C310.021 180.191 310.39 180.897 310.26 181.784C310.131 182.67 309.583 183.416 309.036 183.446C308.488 183.476 308.13 182.769 308.219 181.883Z" fill="#FDA014"/>
<path d="M295.117 194.577C294.968 193.691 295.227 192.994 295.685 193.014C296.143 193.034 296.591 193.771 296.68 194.657C296.77 195.543 296.541 196.23 296.123 196.21C295.705 196.19 295.256 195.454 295.117 194.577Z" fill="#9EF431"/>
<path d="M317.409 151.337C317.464 150.903 317.67 150.502 317.99 150.204C318.31 149.905 318.724 149.729 319.161 149.704C319.359 149.709 319.554 149.759 319.73 149.85C319.906 149.942 320.059 150.072 320.177 150.231C320.295 150.391 320.375 150.575 320.411 150.77C320.448 150.965 320.439 151.166 320.386 151.357C320.327 151.798 320.118 152.206 319.793 152.511C319.468 152.816 319.048 152.999 318.604 153.03C318.405 153.018 318.211 152.962 318.037 152.865C317.863 152.769 317.713 152.634 317.598 152.471C317.484 152.309 317.407 152.122 317.374 151.926C317.341 151.729 317.353 151.528 317.409 151.337Z" fill="#A81D05"/>
<path d="M349.249 140.096C349.443 139.664 349.762 139.301 350.165 139.053C350.568 138.804 351.036 138.682 351.509 138.702C351.703 138.694 351.896 138.736 352.068 138.825C352.241 138.914 352.387 139.047 352.493 139.21C352.598 139.373 352.66 139.56 352.67 139.754C352.681 139.948 352.641 140.141 352.554 140.315C352.345 140.736 352.02 141.089 351.619 141.334C351.217 141.579 350.755 141.705 350.284 141.699C350.093 141.705 349.902 141.661 349.733 141.571C349.563 141.482 349.419 141.351 349.315 141.189C349.211 141.028 349.15 140.843 349.138 140.651C349.127 140.46 349.165 140.268 349.249 140.096Z" fill="#16C1D1"/>
<path d="M328.609 163.852C328.731 163.438 328.968 163.068 329.292 162.784C329.617 162.5 330.015 162.314 330.441 162.249C331.178 162.249 331.516 162.896 331.208 163.762C331.071 164.169 330.828 164.531 330.504 164.813C330.18 165.095 329.787 165.285 329.366 165.365C328.659 165.405 328.33 164.718 328.609 163.852Z" fill="#9FB603"/>
<path d="M281.208 133.674C281.177 133.459 281.192 133.239 281.253 133.03C281.314 132.821 281.42 132.628 281.563 132.463C281.705 132.299 281.882 132.167 282.08 132.077C282.279 131.987 282.494 131.941 282.712 131.942C283.18 131.938 283.633 132.104 283.987 132.41C284.34 132.716 284.57 133.141 284.633 133.605C284.665 133.819 284.65 134.037 284.589 134.245C284.528 134.453 284.424 134.645 284.282 134.809C284.14 134.972 283.965 135.103 283.768 135.193C283.57 135.282 283.356 135.328 283.14 135.327C282.676 135.32 282.229 135.151 281.876 134.849C281.523 134.547 281.287 134.132 281.208 133.674Z" fill="#9EF431"/>
<path d="M290.815 182.6C290.596 181.475 291.014 180.609 291.741 180.609C292.468 180.609 293.195 181.604 293.354 182.699C293.513 183.795 293.105 184.691 292.428 184.691C291.751 184.691 291.034 183.725 290.815 182.6Z" fill="#A81D05"/>
<path d="M275.543 170.194C275.403 171.907 275.334 173.599 275.334 175.282C273.9 173.47 272.426 171.678 270.913 169.885C272.456 170.005 274 170.105 275.543 170.194Z" fill="#FDA014"/>
<path d="M304.376 149.843C302.577 149.087 300.746 148.333 298.88 147.583C300.364 146.209 301.867 144.825 303.49 143.451C303.796 145.589 304.091 147.719 304.376 149.843Z" fill="#FDA014"/>
<path d="M325.473 176.696C325.413 178.408 325.284 180.111 325.085 181.793C323.87 181.793 322.646 181.883 321.421 181.903C322.715 180.21 324.069 178.418 325.473 176.696Z" fill="#16C1D1"/>
<path d="M314.014 198.012C314.114 197.266 314.193 196.509 314.273 195.752L313.118 195.593C313.616 194.916 314.114 194.249 314.632 193.602C314.831 192.745 315.02 191.879 315.209 191.013C315.508 191.361 315.786 191.71 316.065 192.058L317.738 190.615C317.35 191.501 316.951 192.387 316.563 193.263C316.653 193.821 316.732 194.378 316.802 194.926L315.398 195.563C314.93 196.36 314.462 197.186 314.014 198.012Z" fill="#9EF431"/>
<path d="M214.32 31.6714C216.5 31.7511 217.954 33.9017 217.576 36.4007C216.261 45.1225 215.017 53.7447 213.932 62.2873C213.095 53.7547 212.08 45.0528 210.945 36.2215C210.646 33.6428 212.14 31.5918 214.32 31.6714Z" fill="$primary-color"/>
<path d="M189.499 46.3471C190.743 45.5904 192.625 46.2774 193.66 47.8903C197.265 53.4659 200.69 59.1509 203.806 64.8161C199.418 59.6724 194.766 54.7606 189.867 50.1006C188.423 48.7864 188.244 47.1037 189.499 46.3471Z" fill="#FDA014"/>
<path d="M164.757 59.8678C165.344 58.3445 168.132 57.8069 170.87 58.8125C180.087 62.2578 188.947 66.5927 197.324 71.7557C188.145 68.2131 178.683 65.4553 169.038 63.5119C166.151 62.9643 164.179 61.3912 164.757 59.8678Z" fill="#9EF431"/>
<path d="M255.6 63.4819C256.038 64.6368 254.545 65.8316 252.354 66.2398C244.959 67.6408 237.673 69.5639 230.55 71.9946C237.091 68.3198 243.928 65.1992 250.99 62.6654C253.081 61.9187 255.182 62.3369 255.6 63.4819Z" fill="#FDC63A"/>
<path d="M249.595 37.4162C251.746 38.9694 251.328 41.5182 248.759 43.2805C239.744 49.5979 231.448 56.8829 224.018 65.0052C229.498 55.8772 235.592 47.132 242.258 38.83C243.079 37.7146 244.29 36.9496 245.65 36.6876C247.01 36.4256 248.419 36.6857 249.595 37.4162Z" fill="#27DCED"/>
<path d="M199.007 28.784C198.964 29.3192 198.719 29.8178 198.321 30.1785C197.923 30.5392 197.403 30.7348 196.866 30.7255C196.608 30.7728 196.343 30.7686 196.086 30.713C195.829 30.6574 195.586 30.5517 195.371 30.4018C195.155 30.2518 194.971 30.0607 194.83 29.8395C194.688 29.6182 194.592 29.3712 194.546 29.1126C194.584 28.5677 194.829 28.0579 195.231 27.6877C195.633 27.3175 196.161 27.1149 196.707 27.1213C196.967 27.0773 197.234 27.0856 197.491 27.1457C197.748 27.2057 197.991 27.3163 198.205 27.471C198.419 27.6258 198.6 27.8216 198.738 28.047C198.876 28.2724 198.967 28.5229 199.007 28.784Z" fill="#16C1D1"/>
<path d="M223.431 55.5667C223.359 56.0513 223.102 56.4892 222.714 56.7882C222.326 57.0872 221.837 57.2239 221.35 57.1696C221.022 57.104 220.72 56.9454 220.479 56.7128C220.239 56.4801 220.071 56.1832 219.995 55.8575C219.919 55.5318 219.938 55.1911 220.05 54.876C220.163 54.561 220.363 54.2849 220.628 54.0808C220.893 53.8767 221.211 53.7532 221.545 53.725C221.878 53.6968 222.212 53.7651 222.508 53.9217C222.803 54.0784 223.047 54.3168 223.211 54.6085C223.375 54.9002 223.451 55.2328 223.431 55.5667Z" fill="#FDA014"/>
<path d="M219.728 74.9716C219.656 75.457 219.399 75.8958 219.012 76.1964C218.624 76.497 218.135 76.6361 217.647 76.5846C217.319 76.5191 217.017 76.3609 216.777 76.1288C216.537 75.8966 216.368 75.6003 216.292 75.2751C216.215 74.9499 216.234 74.6096 216.345 74.2947C216.457 73.9797 216.657 73.7035 216.921 73.4988C217.185 73.2941 217.502 73.1697 217.835 73.1403C218.167 73.1109 218.502 73.1778 218.797 73.333C219.093 73.4882 219.338 73.7252 219.503 74.0157C219.668 74.3062 219.746 74.6381 219.728 74.9716Z" fill="#FDA014"/>
<path d="M189.917 74.6727C189.965 74.8792 189.966 75.0939 189.919 75.3007C189.872 75.5075 189.779 75.701 189.647 75.8668C189.515 76.0325 189.347 76.1662 189.156 76.2577C188.965 76.3492 188.755 76.3962 188.543 76.3952C188.073 76.3995 187.614 76.2487 187.238 75.9662C186.862 75.6836 186.589 75.285 186.462 74.832C186.408 74.6246 186.403 74.4074 186.447 74.1976C186.492 73.9878 186.584 73.7911 186.717 73.6232C186.85 73.4552 187.021 73.3204 187.215 73.2296C187.409 73.1387 187.622 73.0942 187.836 73.0996C188.311 73.0816 188.778 73.2284 189.157 73.5151C189.536 73.8018 189.805 74.2108 189.917 74.6727Z" fill="#FDC63A"/>
<path d="M247.835 73.3687C247.652 73.8043 247.335 74.1709 246.931 74.4159C246.527 74.6609 246.056 74.7718 245.585 74.7327C245.377 74.7351 245.172 74.6887 244.986 74.5972C244.799 74.5058 244.637 74.3718 244.512 74.2061C244.387 74.0404 244.303 73.8476 244.266 73.6434C244.229 73.4391 244.241 73.229 244.3 73.0302C244.472 72.5874 244.787 72.2147 245.194 71.9712C245.602 71.7277 246.079 71.6273 246.55 71.686C246.756 71.6846 246.959 71.7308 247.143 71.8212C247.327 71.9116 247.488 72.0436 247.613 72.2067C247.737 72.3699 247.822 72.5599 247.861 72.7615C247.899 72.9632 247.89 73.171 247.835 73.3687Z" fill="#9EF431"/>
<path d="M202.432 39.1088C202.409 39.4936 202.235 39.8537 201.948 40.111C201.661 40.3683 201.284 40.5019 200.899 40.4828C200.516 40.5289 200.13 40.4251 199.822 40.1931C199.514 39.9611 199.308 39.619 199.246 39.2383C199.302 38.8645 199.486 38.5219 199.767 38.2693C200.048 38.0168 200.408 37.8702 200.786 37.8549C201.163 37.8395 201.534 37.9564 201.835 38.1853C202.135 38.4142 202.347 38.7408 202.432 39.1088Z" fill="#FDA014"/>
<path d="M226.577 29.5603C226.544 29.7498 226.472 29.9306 226.367 30.0915C226.262 30.2525 226.125 30.3904 225.965 30.4966C225.804 30.6029 225.624 30.6753 225.435 30.7095C225.246 30.7436 225.051 30.7388 224.864 30.6954C224.463 30.6872 224.078 30.5315 223.784 30.2578C223.49 29.9841 223.308 29.6118 223.271 29.2119C223.3 29.0167 223.369 28.8298 223.475 28.6633C223.58 28.4968 223.72 28.3544 223.884 28.2454C224.049 28.1365 224.234 28.0634 224.429 28.0309C224.623 27.9984 224.822 28.0073 225.013 28.0569C225.412 28.0749 225.791 28.2374 226.078 28.514C226.366 28.7907 226.543 29.1626 226.577 29.5603Z" fill="#9EF431"/>
<path d="M197.763 63.4916C197.774 63.662 197.75 63.8329 197.691 63.9933C197.633 64.1538 197.542 64.3004 197.424 64.424C197.306 64.5475 197.164 64.6452 197.006 64.7109C196.849 64.7767 196.679 64.809 196.509 64.8059C196.149 64.8308 195.793 64.7213 195.51 64.4987C195.227 64.2762 195.036 63.9563 194.975 63.6012C194.961 63.4292 194.984 63.2562 195.041 63.0933C195.098 62.9304 195.188 62.7814 195.306 62.6556C195.425 62.5299 195.568 62.4304 195.727 62.3635C195.886 62.2965 196.057 62.2637 196.23 62.267C196.593 62.238 196.954 62.3484 197.239 62.5759C197.524 62.8034 197.711 63.1308 197.763 63.4916Z" fill="$primary-color"/>
<path d="M175.233 74.354C175.289 74.4958 175.309 74.6494 175.291 74.8009C175.273 74.9524 175.218 75.0971 175.13 75.2217C175.042 75.3463 174.924 75.447 174.787 75.5145C174.65 75.5821 174.499 75.6144 174.346 75.6085C173.994 75.6333 173.642 75.5516 173.337 75.3741C173.032 75.1966 172.787 74.9314 172.634 74.6129C172.577 74.4712 172.557 74.3175 172.575 74.166C172.593 74.0145 172.649 73.8699 172.737 73.7452C172.825 73.6206 172.942 73.5199 173.079 73.4524C173.216 73.3848 173.368 73.3525 173.52 73.3584C173.874 73.325 174.229 73.403 174.536 73.5815C174.843 73.7601 175.087 74.0302 175.233 74.354Z" fill="#16C1D1"/>
<path d="M181.793 54.6905C181.808 54.867 181.786 55.0446 181.73 55.2125C181.674 55.3804 181.583 55.5349 181.465 55.6665C181.346 55.7981 181.202 55.904 181.041 55.9776C180.88 56.0512 180.705 56.0909 180.528 56.0944C180.163 56.1575 179.788 56.0865 179.471 55.8943C179.155 55.7021 178.918 55.4018 178.806 55.0489C178.789 54.8709 178.81 54.6913 178.866 54.5216C178.923 54.3518 179.013 54.1956 179.133 54.0628C179.253 53.9299 179.399 53.8234 179.562 53.7498C179.725 53.6761 179.901 53.6371 180.08 53.6351C180.446 53.5637 180.825 53.6327 181.143 53.8282C181.46 54.0238 181.692 54.3316 181.793 54.6905Z" fill="#9EF431"/>
<path d="M227.443 77.0223C227.385 77.3589 227.209 77.6637 226.946 77.8812C226.683 78.0987 226.35 78.2144 226.009 78.2071C225.85 78.2045 225.694 78.1682 225.551 78.1006C225.408 78.033 225.281 77.9357 225.178 77.8152C225.076 77.6946 225 77.5535 224.956 77.4014C224.912 77.2492 224.901 77.0895 224.924 76.9327C224.972 76.5951 225.143 76.287 225.404 76.0668C225.664 75.8466 225.996 75.7296 226.337 75.738C226.499 75.7358 226.659 75.7691 226.806 75.8355C226.953 75.9019 227.084 75.9998 227.19 76.1222C227.295 76.2446 227.372 76.3887 227.416 76.5442C227.46 76.6997 227.469 76.8629 227.443 77.0223Z" fill="#9EF431"/>
<path d="M229.992 39.6365C229.947 39.8702 229.855 40.0926 229.723 40.2907C229.591 40.4888 229.421 40.6586 229.223 40.7903C229.025 40.9219 228.802 41.0127 228.568 41.0573C228.334 41.1019 228.094 41.0996 227.861 41.0503C227.374 41.0297 226.91 40.8307 226.56 40.4911C226.209 40.1516 225.996 39.6951 225.959 39.2084C226 38.9716 226.088 38.7454 226.218 38.5436C226.348 38.3418 226.518 38.1686 226.717 38.0346C226.917 37.9005 227.141 37.8083 227.377 37.7636C227.613 37.7189 227.856 37.7227 228.09 37.7746C228.581 37.7957 229.047 37.9975 229.398 38.3412C229.749 38.6849 229.96 39.1462 229.992 39.6365Z" fill="$primary-color"/>
<path d="M245.853 51.2656C247.074 50.1173 248.315 48.9956 249.576 47.9004C250.326 49.4138 251.043 50.9072 251.727 52.3808C249.769 51.9759 247.811 51.6042 245.853 51.2656Z" fill="#FDA014"/>
<path d="M210.079 64.4277C211.751 65.0052 213.411 65.5926 215.057 66.19C213.696 67.2056 212.369 68.2311 211.074 69.2665C210.686 67.7034 210.367 66.0407 210.079 64.4277Z" fill="#FDA014"/>
<path d="M178.218 44.6843C177.103 43.4033 175.981 42.1388 174.853 40.8909C176.924 40.6122 178.988 40.3732 181.046 40.1741C180.08 41.6874 179.144 43.1909 178.218 44.6843Z" fill="#16C1D1"/>
<path d="M183.256 26.6135L184.68 28.3858L187.517 28.3061L185.606 30.1381L186.263 32.2488L183.684 31.5818L181.295 32.9956C181.374 32.2588 181.464 31.5121 181.553 30.7753C180.827 30.377 180.11 29.9887 179.373 29.6104L182.161 28.794C182.519 28.0672 182.888 27.3403 183.256 26.6135Z" fill="#9EF431"/>
<path d="M207.092 71.626L208.516 73.4082C209.459 73.3683 210.405 73.3385 211.354 73.3186C210.707 73.9259 210.069 74.5432 209.442 75.1505L210.099 77.2613C209.243 77.0323 208.377 76.8132 207.521 76.6042C206.714 77.0622 205.918 77.5401 205.131 78.008C205.211 77.2712 205.3 76.5345 205.39 75.7877C204.663 75.3895 203.936 75.0012 203.209 74.6328C204.135 74.3441 205.071 74.0752 205.997 73.8164L207.092 71.626Z" fill="$primary-color"/>
<path d="M211.453 118.311C210.637 118.311 209.93 116.479 209.93 114.209C209.93 106.294 210.348 98.2792 210.976 90.0254C211.832 98.2394 212.469 106.294 212.818 114.199C212.897 116.489 212.27 118.311 211.453 118.311Z" fill="$primary-color"/>
<path d="M224.734 105.378C223.878 105.995 223.091 105.278 222.892 103.765C222.113 98.2576 220.847 92.83 219.109 87.5461C221.759 92.0914 223.937 96.8954 225.61 101.883C225.818 102.488 225.846 103.14 225.69 103.761C225.535 104.381 225.203 104.943 224.734 105.378Z" fill="#FDA014"/>
<path d="M244.687 95.3121C243.283 96.6263 241.501 96.7557 240.485 95.5112C236.084 90.2915 231.241 85.4613 226.009 81.0745C233.118 84.7583 239.37 88.3127 244.627 91.3992C246.111 92.2953 246.081 94.0078 244.687 95.3121Z" fill="#9EF431"/>
<path d="M180.568 92.4946C180.317 92.2978 180.119 92.0413 179.993 91.7485C179.866 91.4557 179.815 91.1358 179.844 90.8181C179.872 90.5004 179.98 90.1949 180.157 89.9295C180.334 89.6641 180.575 89.4473 180.857 89.2986C185.188 86.7697 190.106 84.0118 195.533 81.2041C191.423 84.7278 187.564 88.5337 183.983 92.5942C183.764 92.8328 183.496 93.0215 183.198 93.1475C182.899 93.2735 182.577 93.3338 182.253 93.3243C181.929 93.3149 181.611 93.2359 181.32 93.0928C181.03 92.9496 180.773 92.7456 180.568 92.4946Z" fill="#FDC63A"/>
<path d="M197.515 116.579C196.75 115.85 196.143 114.972 195.731 114C195.318 113.027 195.109 111.98 195.115 110.924C195.583 103.696 198.331 95.8501 202.752 87.6958C200.054 96.8656 198.769 105.747 199.327 114.17C199.476 116.599 198.809 117.655 197.515 116.579Z" fill="#27DCED"/>
<path d="M216.899 120.751C217.029 119.875 217.507 119.138 217.965 119.098C218.423 119.058 218.652 119.715 218.473 120.581C218.293 121.448 217.805 122.194 217.397 122.244C216.989 122.294 216.77 121.617 216.899 120.751Z" fill="#16C1D1"/>
<path d="M204.763 96.7461C204.719 96.5598 204.716 96.3663 204.754 96.1787C204.792 95.9911 204.869 95.8139 204.982 95.659C205.094 95.5041 205.239 95.3752 205.405 95.2811C205.572 95.1869 205.757 95.1297 205.947 95.1133C206.352 95.1618 206.725 95.3566 206.997 95.6609C207.268 95.9653 207.419 96.3583 207.421 96.766C207.481 97.682 206.953 98.4088 206.246 98.4088C205.844 98.3468 205.477 98.147 205.206 97.8437C204.935 97.5403 204.779 97.1523 204.763 96.7461Z" fill="#FDA014"/>
<path d="M233.806 78.7648C233.913 78.3212 234.17 77.9277 234.532 77.6504C234.895 77.3731 235.341 77.2288 235.798 77.2415C236.004 77.239 236.208 77.2851 236.393 77.3761C236.578 77.4671 236.739 77.6003 236.863 77.7651C236.987 77.9299 237.071 78.1216 237.107 78.3247C237.143 78.5278 237.131 78.7365 237.072 78.9341C236.947 79.3673 236.686 79.7486 236.328 80.0213C235.969 80.294 235.531 80.4435 235.081 80.4475C234.876 80.4474 234.675 80.4 234.491 80.309C234.308 80.2179 234.149 80.0857 234.025 79.9228C233.902 79.7598 233.818 79.5704 233.78 79.3695C233.742 79.1686 233.751 78.9617 233.806 78.7648Z" fill="#FDC63A"/>
<path d="M179.683 81.6421C179.599 81.4624 179.563 81.264 179.578 81.0662C179.592 80.8683 179.658 80.6777 179.768 80.5126C179.878 80.3475 180.029 80.2135 180.206 80.1236C180.383 80.0338 180.58 79.9909 180.778 79.9993C181.249 79.9986 181.708 80.1437 182.093 80.4147C182.479 80.6857 182.77 81.0693 182.929 81.5127C183.006 81.6921 183.038 81.888 183.021 82.0828C183.004 82.2776 182.939 82.4651 182.831 82.6282C182.723 82.7914 182.577 82.9251 182.404 83.0171C182.232 83.1092 182.039 83.1568 181.843 83.1555C181.375 83.1406 180.921 82.9895 180.538 82.7207C180.154 82.4519 179.857 82.0771 179.683 81.6421Z" fill="#9EF431"/>
<path d="M216.879 111.511C216.949 110.854 217.357 110.317 217.786 110.297C218.214 110.277 218.482 110.795 218.383 111.452C218.283 112.109 217.885 112.646 217.477 112.666C217.069 112.686 216.81 112.188 216.879 111.511Z" fill="#FDA014"/>
<path d="M207.212 120.89C207.102 120.243 207.291 119.726 207.63 119.745C207.968 119.765 208.297 120.303 208.377 120.95C208.456 121.597 208.267 122.115 207.958 122.095C207.65 122.075 207.321 121.538 207.212 120.89Z" fill="#9EF431"/>
<path d="M223.66 89.0299C223.701 88.7085 223.852 88.4115 224.088 88.1899C224.325 87.9682 224.631 87.8357 224.954 87.8152C225.099 87.8243 225.24 87.8649 225.367 87.9343C225.495 88.0037 225.606 88.1 225.692 88.2167C225.778 88.3334 225.838 88.4675 225.867 88.6097C225.896 88.7518 225.894 88.8987 225.86 89.0398C225.81 89.3564 225.655 89.6471 225.421 89.8655C225.186 90.0839 224.885 90.2173 224.566 90.2445C224.422 90.2352 224.282 90.1947 224.155 90.126C224.029 90.0572 223.918 89.9618 223.832 89.8463C223.746 89.7308 223.686 89.598 223.656 89.457C223.627 89.3161 223.628 89.1703 223.66 89.0299Z" fill="$primary-color"/>
<path d="M247.146 80.6964C247.292 80.3811 247.53 80.1173 247.829 79.9396C248.127 79.7619 248.472 79.6787 248.819 79.7007C248.962 79.694 249.104 79.7248 249.231 79.7901C249.358 79.8554 249.465 79.9528 249.543 80.0727C249.621 80.1926 249.665 80.3308 249.673 80.4734C249.68 80.6161 249.65 80.7582 249.586 80.8856C249.428 81.1912 249.187 81.4464 248.892 81.6224C248.596 81.7984 248.257 81.888 247.913 81.8812C247.77 81.8879 247.628 81.8571 247.501 81.7918C247.374 81.7266 247.267 81.6291 247.189 81.5092C247.112 81.3893 247.067 81.2511 247.059 81.1085C247.052 80.9659 247.082 80.8238 247.146 80.6964Z" fill="#16C1D1"/>
<path d="M231.913 98.2295C232.004 97.9247 232.18 97.6518 232.419 97.4423C232.659 97.2327 232.953 97.0949 233.267 97.0447C233.814 97.0447 234.073 97.5226 233.834 98.1598C233.734 98.4596 233.556 98.7274 233.318 98.9356C233.08 99.1438 232.791 99.285 232.48 99.3446C231.982 99.3745 231.714 98.8667 231.913 98.2295Z" fill="#9EF431"/>
<path d="M196.956 75.9671C196.927 75.8067 196.933 75.6417 196.975 75.4841C197.018 75.3266 197.094 75.1804 197.2 75.0564C197.306 74.9324 197.438 74.8335 197.587 74.7672C197.736 74.7008 197.898 74.6685 198.061 74.6727C198.408 74.6672 198.744 74.7888 199.006 75.0145C199.268 75.2402 199.439 75.5543 199.485 75.8974C199.507 76.055 199.494 76.2153 199.448 76.3677C199.402 76.52 199.324 76.6608 199.22 76.7805C199.115 76.9003 198.986 76.9963 198.841 77.0621C198.696 77.1278 198.539 77.1618 198.38 77.1618C198.04 77.1622 197.711 77.0426 197.45 76.824C197.19 76.6055 197.015 76.302 196.956 75.9671Z" fill="#9EF431"/>
<path d="M204.035 112.059C203.876 111.222 204.184 110.575 204.722 110.595C205.26 110.615 205.797 111.302 205.917 112.138C206.036 112.975 205.728 113.632 205.23 113.602C204.732 113.572 204.204 112.885 204.035 112.059Z" fill="$primary-color"/>
<path d="M192.775 102.909C192.676 104.163 192.616 105.418 192.616 106.662C191.561 105.335 190.475 104.007 189.36 102.68L192.775 102.909Z" fill="#FDA014"/>
<path d="M214.062 87.8949C212.737 87.3373 211.383 86.7797 210.009 86.2222C211.104 85.2066 212.24 84.1911 213.414 83.1755C213.623 84.7586 213.842 86.3317 214.062 87.8949Z" fill="#FDA014"/>
<path d="M229.613 107.698C229.563 108.962 229.464 110.217 229.324 111.461C228.428 111.461 227.522 111.531 226.616 111.541C227.572 110.257 228.578 108.972 229.613 107.698Z" fill="#16C1D1"/>
<path d="M221.151 123.459C221.22 122.901 221.29 122.354 221.34 121.796L220.494 121.667L221.609 120.183C221.758 119.546 221.897 118.909 222.037 118.272L222.664 119.038L223.899 117.983L223.033 119.974C223.106 120.379 223.165 120.787 223.212 121.199L222.166 121.667C221.828 122.214 221.479 122.822 221.151 123.459Z" fill="#9EF431"/>
<path d="M253.597 164.659L283.944 175.621L308.417 107.877L253.597 164.659Z" fill="#27DCED"/>
<path d="M308.418 107.877L283.945 175.621L314.302 186.583L308.418 107.877Z" fill="#14B0BF"/>
<path d="M313.447 109.689C313.087 110.681 312.441 111.544 311.591 112.169C310.741 112.794 309.725 113.153 308.671 113.201C307.617 113.248 306.572 112.982 305.669 112.436C304.766 111.891 304.045 111.09 303.598 110.134C303.15 109.179 302.995 108.112 303.154 107.069C303.312 106.026 303.776 105.053 304.487 104.274C305.197 103.494 306.124 102.943 307.148 102.689C308.172 102.436 309.248 102.491 310.241 102.849C310.901 103.087 311.507 103.453 312.026 103.926C312.544 104.399 312.964 104.969 313.262 105.604C313.56 106.24 313.729 106.928 313.761 107.629C313.793 108.329 313.686 109.03 313.447 109.689Z" fill="#FD8114"/>
<path d="M310.24 102.849C309.331 102.61 308.372 102.641 307.479 102.937C306.587 103.233 305.8 103.783 305.214 104.518C304.629 105.254 304.269 106.144 304.18 107.08C304.091 108.016 304.277 108.958 304.713 109.79C305.15 110.623 305.819 111.311 306.64 111.77C307.46 112.229 308.397 112.44 309.335 112.376C310.273 112.313 311.172 111.978 311.923 111.413C312.675 110.847 313.245 110.075 313.566 109.192C313.901 107.91 313.746 106.55 313.131 105.377C312.516 104.203 311.485 103.302 310.24 102.849Z" fill="#FDA014"/>
<path d="M299.427 173.38C300.064 173.611 300.755 173.648 301.413 173.486C302.07 173.325 302.665 172.972 303.122 172.472C303.579 171.972 303.878 171.348 303.98 170.679C304.083 170.009 303.985 169.324 303.698 168.711C303.411 168.097 302.949 167.582 302.37 167.231C301.791 166.88 301.121 166.709 300.444 166.739C299.768 166.768 299.115 166.998 298.569 167.399C298.023 167.799 297.608 168.353 297.376 168.989C297.222 169.412 297.153 169.861 297.173 170.311C297.193 170.761 297.301 171.202 297.492 171.61C297.682 172.018 297.951 172.384 298.283 172.688C298.615 172.991 299.004 173.227 299.427 173.38Z" fill="#FBD678"/>
<path d="M307.831 152.332C308.183 151.36 308.239 150.305 307.991 149.301C307.744 148.298 307.204 147.39 306.44 146.692C305.677 145.995 304.724 145.54 303.701 145.385C302.679 145.229 301.634 145.381 300.698 145.82C299.761 146.258 298.976 146.965 298.442 147.85C297.907 148.735 297.647 149.759 297.694 150.792C297.742 151.825 298.094 152.821 298.708 153.653C299.321 154.486 300.168 155.117 301.14 155.469C302.443 155.939 303.88 155.874 305.135 155.285C306.389 154.697 307.359 153.635 307.831 152.332Z" fill="#FBD678"/>
<path d="M309.414 127.252C308.857 127.054 308.258 127.003 307.675 127.105C307.092 127.207 306.545 127.459 306.088 127.835C305.632 128.211 305.28 128.699 305.068 129.251C304.856 129.804 304.79 130.402 304.878 130.987C304.966 131.572 305.204 132.125 305.569 132.591C305.934 133.057 306.413 133.42 306.96 133.645C307.507 133.871 308.103 133.951 308.69 133.877C309.278 133.804 309.836 133.58 310.311 133.226L309.882 127.491C309.731 127.404 309.574 127.324 309.414 127.252Z" fill="#FBD678"/>
<path d="M310.897 161.771L307.323 161.034L308.916 164.33L307.104 167.516L310.728 167.008L313.018 169.517L312.341 160.387L310.897 161.771Z" fill="#FBD678"/>
<path d="M313.047 182.122C313.343 182.231 313.658 182.278 313.973 182.261L313.624 177.602C313.093 177.646 312.593 177.871 312.207 178.24C311.822 178.609 311.575 179.099 311.507 179.628C311.439 180.157 311.555 180.693 311.836 181.147C312.116 181.601 312.544 181.945 313.047 182.122Z" fill="#FBD678"/>
<path d="M288.187 174.147L287.788 170.503L285.14 173.042L281.556 172.305L282.999 175.272L283.945 175.62L288.416 177.233L291.422 175.869L288.187 174.147Z" fill="#FDC63A"/>
<path d="M290.955 151.068L290.547 147.424L287.908 149.963L284.324 149.226L285.927 152.522L284.115 155.708L287.739 155.2L290.208 157.908L290.845 154.304L294.181 152.791L290.955 151.068Z" fill="#FBD678"/>
<path d="M287.59 133.614L288.227 130.01L291.563 128.497L289.552 127.421L285.639 131.474L287.59 133.614Z" fill="#FBD678"/>
<path d="M277.962 145.174C278.817 145.483 279.76 145.439 280.584 145.053C281.407 144.666 282.043 143.968 282.352 143.113C282.661 142.257 282.618 141.314 282.231 140.491C281.845 139.667 281.147 139.031 280.291 138.722C279.817 138.55 279.31 138.489 278.808 138.543L275.721 141.739C275.676 142.476 275.869 143.209 276.273 143.827C276.676 144.446 277.268 144.918 277.962 145.174Z" fill="#FBD678"/>
<path d="M260.398 163.673C261.685 164.104 263.089 164.016 264.312 163.429C265.535 162.842 266.482 161.802 266.951 160.529C267.419 159.255 267.374 157.85 266.823 156.609C266.273 155.369 265.261 154.392 264.003 153.886L257.372 160.756C257.644 161.427 258.054 162.033 258.576 162.535C259.097 163.038 259.718 163.425 260.398 163.673Z" fill="#FBD678"/>
<path d="M279.375 162.488C279.216 162.923 279.191 163.396 279.302 163.846C279.412 164.296 279.654 164.703 279.996 165.015C280.338 165.327 280.765 165.531 281.223 165.6C281.681 165.67 282.15 165.602 282.569 165.405C282.988 165.208 283.339 164.89 283.578 164.494C283.817 164.097 283.933 163.638 283.911 163.175C283.888 162.712 283.729 162.266 283.454 161.894C283.178 161.522 282.798 161.24 282.362 161.084C282.073 160.98 281.767 160.933 281.461 160.947C281.155 160.961 280.854 161.035 280.577 161.166C280.299 161.296 280.05 161.48 279.844 161.707C279.638 161.934 279.478 162.199 279.375 162.488Z" fill="#FBD678"/>
<path d="M297.089 122.463C297.662 122.629 298.277 122.571 298.809 122.3C299.34 122.029 299.749 121.566 299.952 121.005C300.155 120.443 300.136 119.826 299.9 119.278C299.664 118.729 299.229 118.291 298.682 118.053L295.705 121.05C295.819 121.371 296.002 121.664 296.241 121.909C296.48 122.153 296.769 122.342 297.089 122.463Z" fill="#FBD678"/>
<path d="M295.704 133.047C295.269 132.889 294.796 132.863 294.346 132.974C293.896 133.085 293.489 133.326 293.177 133.668C292.865 134.01 292.661 134.438 292.591 134.896C292.522 135.354 292.59 135.822 292.787 136.241C292.984 136.661 293.301 137.012 293.698 137.251C294.095 137.49 294.554 137.605 295.017 137.583C295.48 137.561 295.925 137.402 296.298 137.126C296.67 136.85 296.952 136.47 297.108 136.034C297.316 135.452 297.285 134.81 297.022 134.251C296.759 133.691 296.285 133.258 295.704 133.047Z" fill="#FBD678"/>
<path d="M316.035 191.55C316.802 189.43 315.876 187.15 312.271 185.845L255.62 165.385C252.016 164.081 249.855 165.246 249.088 167.376C249.088 167.446 249.088 167.506 249.039 167.575L315.945 191.74C315.98 191.679 316.01 191.615 316.035 191.55Z" fill="#FDC63A"/>
<path d="M249.039 167.566C248.402 169.627 249.358 171.797 252.852 173.062L309.504 193.522C312.999 194.786 315.12 193.731 315.946 191.73L249.039 167.566Z" fill="#A81D05"/>
<g style="mix-blend-mode:multiply">
<g style="mix-blend-mode:multiply">
<path d="M255.519 162.667L253.597 164.658L283.944 175.62L314.301 186.582L314.092 183.824L255.519 162.667Z" fill="#D1D1D1"/>
</g>
</g>
<path d="M135.037 49.2244L163.92 101.376L122.193 63.2828L135.037 49.2244Z" fill="$primary-color"/>
<path d="M109.251 77.4606L122.195 63.2827L163.922 101.376L164.041 101.585L109.251 77.4606Z" fill="#BC2E3A"/>
<path d="M125.052 49.1546L109.59 7.55686C109.501 7.37111 109.452 7.16874 109.445 6.96282C109.439 6.75689 109.477 6.55199 109.555 6.36133C109.633 6.17068 109.75 5.99851 109.899 5.85593C110.047 5.71336 110.224 5.60355 110.418 5.5336C110.612 5.46364 110.818 5.4351 111.024 5.4498C111.229 5.46451 111.429 5.52214 111.611 5.61898C111.793 5.71581 111.952 5.8497 112.079 6.012C112.206 6.17429 112.298 6.3614 112.348 6.56122V6.66079L125.052 49.1546Z" fill="#9EF431"/>
<path d="M117.576 59.0713L95.7214 37.8344C95.4415 37.5611 95.2816 37.1878 95.277 36.7966C95.2723 36.4054 95.4232 36.0284 95.6965 35.7485C95.9698 35.4686 96.3431 35.3087 96.7343 35.3041C97.1255 35.2994 97.5025 35.4503 97.7824 35.7236L97.872 35.8331L117.576 59.0713Z" fill="#FDA014"/>
<path d="M111.451 64.0593L60.5242 49.1248C60.3392 49.0705 60.1667 48.9804 60.0165 48.8594C59.8664 48.7385 59.7415 48.5892 59.649 48.42C59.5566 48.2508 59.4984 48.0651 59.4777 47.8734C59.457 47.6817 59.4743 47.4878 59.5286 47.3028C59.5828 47.1178 59.673 46.9453 59.7939 46.7951C59.9149 46.6449 60.0642 46.5201 60.2334 46.4276C60.4026 46.3352 60.5883 46.2769 60.78 46.2563C60.9717 46.2356 61.1656 46.2529 61.3506 46.3071H61.4302L111.451 64.0593Z" fill="$primary-color"/>
<path d="M106.771 70.9988L92.4941 72.6814C92.098 72.7263 91.7003 72.612 91.3884 72.3637C91.0766 72.1153 90.8762 71.7533 90.8313 71.3572C90.7865 70.9611 90.9007 70.5634 91.1491 70.2516C91.3974 69.9398 91.7594 69.7394 92.1555 69.6945C92.2579 69.6796 92.3618 69.6796 92.4642 69.6945L106.771 70.9988Z" fill="#27DCED"/>
<path d="M132.13 43.9571L136.402 23.6561C136.433 23.4584 136.504 23.2692 136.611 23.1001C136.718 22.9309 136.859 22.7853 137.024 22.6721C137.189 22.559 137.375 22.4807 137.572 22.4419C137.768 22.4032 137.97 22.4049 138.166 22.4468C138.362 22.4888 138.547 22.5702 138.71 22.6861C138.873 22.802 139.011 22.9499 139.115 23.1208C139.219 23.2917 139.288 23.4821 139.316 23.6802C139.344 23.8784 139.331 24.0802 139.279 24.2734C139.267 24.3419 139.247 24.4087 139.219 24.4725L132.13 43.9571Z" fill="#FDC63A"/>
<path d="M94.7935 16.5078L97.8003 18.2402L98.089 21.705L100.668 19.3752L104.053 20.1717L102.629 16.9956L104.431 14.0287L100.976 14.407L98.7163 11.7686L97.9994 15.1637L94.7935 16.5078Z" fill="#FDC63A"/>
<path d="M68.1507 66.0405L70.0823 65.0449L72.0038 66.0604L71.6554 63.9198L73.2285 62.4064L71.0779 62.0779L70.1121 60.1165L69.1464 62.0679L66.9858 62.3566L68.5291 63.8999L68.1507 66.0405Z" fill="#9EF431"/>
<path d="M122.394 5.13749L125.062 5.23705L126.506 7.48719L127.412 4.97818L130 4.32106L127.909 2.65835L128.069 0L125.848 1.49346L123.359 0.507775L124.096 3.07652L122.394 5.13749Z" fill="#27DCED"/>
<path d="M98.846 54.969L100.778 53.9733L102.699 54.9988L102.351 52.8483L103.924 51.3349L101.763 51.0163L100.817 49.0449L99.8417 50.9964L97.6812 51.2951L99.2244 52.8283L98.846 54.969Z" fill="#9EF431"/>
<path d="M82.3784 48.7862C82.8528 49.2183 83.4446 49.5002 84.0791 49.5962C84.7135 49.6921 85.3622 49.5979 85.9431 49.3253C86.524 49.0527 87.0111 48.6141 87.3429 48.0648C87.6746 47.5155 87.836 46.8802 87.8068 46.2392C87.7776 45.5982 87.5591 44.9802 87.1788 44.4633C86.7985 43.9465 86.2736 43.5539 85.6703 43.3353C85.067 43.1167 84.4124 43.0818 83.7893 43.235C83.1662 43.3883 82.6024 43.7228 82.1694 44.1963C81.5901 44.8335 81.2869 45.6742 81.3261 46.5344C81.3653 47.3946 81.7437 48.2043 82.3784 48.7862Z" fill="#9EF431"/>
<path d="M124.594 17.0451C124.935 17.3583 125.36 17.5635 125.818 17.6346C126.275 17.7057 126.743 17.6397 127.163 17.4447C127.583 17.2498 127.935 16.9348 128.176 16.5395C128.416 16.1442 128.535 15.6865 128.515 15.2241C128.496 14.7617 128.339 14.3155 128.066 13.9419C127.793 13.5683 127.415 13.2841 126.981 13.1252C126.546 12.9663 126.074 12.9398 125.624 13.0492C125.175 13.1586 124.768 13.3988 124.454 13.7396C124.245 13.9652 124.083 14.23 123.977 14.5186C123.871 14.8073 123.823 15.1141 123.836 15.4214C123.849 15.7287 123.922 16.0304 124.052 16.3091C124.183 16.5878 124.367 16.8379 124.594 17.0451Z" fill="$primary-color"/>
<path d="M120.831 55.4869C121.172 55.799 121.599 56.0028 122.056 56.0725C122.514 56.1422 122.982 56.0747 123.401 55.8785C123.82 55.6823 124.171 55.3662 124.411 54.9702C124.65 54.5742 124.767 54.1161 124.746 53.6538C124.725 53.1915 124.568 52.7458 124.294 52.373C124.019 52.0003 123.641 51.7172 123.206 51.5596C122.771 51.402 122.299 51.3769 121.849 51.4876C121.4 51.5983 120.993 51.8397 120.681 52.1813C120.268 52.6418 120.052 53.2463 120.08 53.8647C120.107 54.483 120.377 55.0656 120.831 55.4869Z" fill="$primary-color"/>
<path d="M81.7709 69.8539C82.1106 70.1682 82.5359 70.3746 82.993 70.4472C83.4501 70.5197 83.9184 70.4551 84.3388 70.2615C84.7591 70.0678 85.1126 69.7538 85.3545 69.3593C85.5964 68.9647 85.7158 68.5073 85.6977 68.0448C85.6796 67.5824 85.5248 67.1357 85.2528 66.7612C84.9808 66.3868 84.6038 66.1014 84.1696 65.9412C83.7354 65.7811 83.2634 65.7532 82.8134 65.8613C82.3634 65.9694 81.9556 66.2085 81.6414 66.5484C81.2204 67.0039 80.9975 67.6081 81.0218 68.2279C81.0461 68.8478 81.3155 69.4326 81.7709 69.8539Z" fill="#FDA014"/>
<path d="M139.868 43.9277C140.21 44.2384 140.636 44.4409 141.093 44.5095C141.55 44.5781 142.017 44.5099 142.436 44.3134C142.854 44.1169 143.205 43.8008 143.444 43.4052C143.683 43.0096 143.799 42.5521 143.778 42.0904C143.757 41.6287 143.6 41.1835 143.327 40.811C143.053 40.4385 142.676 40.1553 142.241 39.9972C141.807 39.839 141.336 39.8131 140.887 39.9225C140.438 40.032 140.031 40.272 139.718 40.6122C139.51 40.8393 139.348 41.1054 139.242 41.3952C139.137 41.685 139.09 41.9929 139.103 42.301C139.117 42.6091 139.192 42.9115 139.323 43.1906C139.454 43.4698 139.639 43.7203 139.868 43.9277Z" fill="#9EF431"/>
<path d="M83.8026 28.1069C84.1461 28.4168 84.5739 28.6179 85.0317 28.6847C85.4896 28.7516 85.957 28.6812 86.3748 28.4824C86.7927 28.2837 87.1422 27.9655 87.3792 27.5681C87.6162 27.1707 87.7301 26.712 87.7064 26.2499C87.6828 25.7878 87.5226 25.3431 87.2463 24.972C86.9699 24.6009 86.5897 24.3201 86.1537 24.165C85.7178 24.01 85.2457 23.9877 84.797 24.101C84.3484 24.2142 83.9434 24.458 83.6333 24.8014C83.4261 25.0289 83.266 25.2952 83.1622 25.5849C83.0585 25.8746 83.0132 26.1821 83.0289 26.4894C83.0447 26.7967 83.1211 27.0979 83.2539 27.3755C83.3867 27.6532 83.5732 27.9017 83.8026 28.1069Z" fill="#27DCED"/>
<path d="M139.25 56.8208L141.201 60.3553L124.156 61.1319L127.601 57.3584L139.25 56.8208Z" fill="#D9D9D9"/>
<path d="M110.068 77.819L109.251 77.4606L112.328 74.0953L147.912 72.4724L149.873 76.0069L110.068 77.819Z" fill="#D9D9D9"/>
<path d="M116.519 69.5052L119.964 65.7218L143.58 64.6565L145.542 68.181L116.519 69.5052Z" fill="#D9D9D9"/>
<path d="M143.083 92.3652L135.625 89.0796L156.584 88.1238L158.535 91.6483L143.083 92.3652Z" fill="#D9D9D9"/>
<path d="M126.575 85.0871L119.118 81.8015L152.243 80.2981L154.204 83.8326L126.575 85.0871Z" fill="#D9D9D9"/>
<path d="M159.591 99.6236L152.144 96.338L160.915 95.9397L162.867 99.4742L159.591 99.6236Z" fill="#D9D9D9"/>
<path d="M319.062 147.244C316.762 160.347 322.835 172.364 332.622 174.127L340.129 131.314C330.352 129.522 321.362 134.142 319.062 147.244Z" fill="$primary-color"/>
<path d="M340.129 131.235L332.622 174.047C342.409 175.76 352.206 166.53 354.526 153.418C356.845 140.305 349.926 132.958 340.129 131.235Z" fill="#BC2E3A"/>
<path d="M329.446 176.019L333.031 171.737L334.942 176.984L329.446 176.019Z" fill="#A81D05"/>
<path d="M331.935 176.228C331.497 177.502 330.989 178.767 331.527 180.111C332.702 183.008 333.18 184.522 330.97 187.708C330.35 188.483 329.905 189.383 329.665 190.346C329.327 193.871 329.825 197.057 328.52 200.551C328.29 201.155 328.241 201.813 328.379 202.444C328.517 203.075 328.836 203.653 329.297 204.106C329.675 204.594 330.462 204.046 330.083 203.548C328.431 201.417 330.591 198.411 331.199 196.33C332.085 193.343 330.293 190.356 332.433 187.289C334.952 183.655 331.497 180.469 332.811 176.646C333.011 176.059 332.134 175.65 331.935 176.228Z" fill="#3B4350"/>
<path d="M343.495 169.398C341.842 178.787 346.193 187.399 353.212 188.633L358.598 157.928C351.579 156.693 345.137 160.009 343.495 169.398Z" fill="#16C1D1"/>
<path d="M358.599 157.928L353.213 188.633C360.182 189.858 367.241 183.247 368.894 173.858C370.547 164.469 365.609 159.153 358.599 157.928Z" fill="#14B0BF"/>
<path d="M350.933 190.017L353.501 186.951L354.875 190.704L350.933 190.017Z" fill="#14B0BF"/>
<path d="M352.595 190.077C352.247 190.858 352.11 191.716 352.197 192.566C352.476 194.926 353.511 195.971 351.769 198.54C350.027 201.109 352.496 204.245 350.564 206.505C350.486 206.605 350.45 206.731 350.463 206.857C350.476 206.983 350.537 207.099 350.634 207.18C350.731 207.262 350.856 207.302 350.982 207.293C351.109 207.284 351.227 207.227 351.311 207.132C353.482 204.524 350.992 201.308 352.964 198.47C354.935 195.633 352.416 193.442 353.472 190.505C353.681 189.918 352.805 189.51 352.595 190.087V190.077Z" fill="#3B4350"/>
<path d="M341.722 169.089C341.506 170.312 341.386 171.551 341.364 172.793C347.079 170.095 351.898 163.912 353.949 156.016C348.473 156.683 343.255 160.298 341.722 169.089Z" fill="#871704"/>
<path d="M343.495 169.398C341.842 178.787 346.193 187.399 353.212 188.633L358.598 157.928C351.579 156.693 345.137 160.009 343.495 169.398Z" fill="#27DCED"/>
</svg>
